{
  "accessors": [
    {
      "bufferView": 2,
      "componentType": 5126,
      "count": 48,
      "max": [
        4.541562080383301,
        0.0,
        0.09279222786426544
      ],
      "min": [
        1.7405668497085571,
        -0.7545669674873352,
        -0.1584019511938095
      ],
      "type": "VEC3"
    },
    {
      "bufferView": 2,
      "byteOffset": 576,
      "componentType": 5126,
      "count": 48,
      "max": [
        1.0,
        1.0,
        1.0
      ],
      "min": [
        -1.0,
        -1.0,
        -1.0
      ],
      "type": "VEC3"
    },
    {
      "bufferView": 1,
      "componentType": 5126,
      "count": 48,
      "max": [
        1.0,
        1.0
      ],
      "min": [
        0.0,
        0.0
      ],
      "type": "VEC2"
    },
    {
      "bufferView": 0,
      "componentType": 5125,
      "count": 72,
      "type": "SCALAR"
    },
    {
      "bufferView": 2,
      "byteOffset": 1152,
      "componentType": 5126,
      "count": 24,
      "max": [
        1.0806498527526855,
        0.0,
        0.09279222786426544
      ],
      "min": [
        0.001910567283630371,
        -0.7545669674873352,
        -0.1584019511938095
      ],
      "type": "VEC3"
    },
    {
      "bufferView": 2,
      "byteOffset": 1440,
      "componentType": 5126,
      "count": 24,
      "max": [
        1.0,
        1.0,
        1.0
      ],
      "min": [
        -1.0,
        -1.0,
        -1.0
      ],
      "type": "VEC3"
    },
    {
      "bufferView": 1,
      "byteOffset": 384,
      "componentType": 5126,
      "count": 24,
      "max": [
        1.0,
        1.0
      ],
      "min": [
        0.0,
        0.0
      ],
      "type": "VEC2"
    },
    {
      "bufferView": 0,
      "byteOffset": 288,
      "componentType": 5125,
      "count": 36,
      "type": "SCALAR"
    },
    {
      "bufferView": 2,
      "byteOffset": 1728,
      "componentType": 5126,
      "count": 9834,
      "max": [
        4.7276930809021,
        2.21655011177063,
        5.066537857055664
      ],
      "min": [
        -2.771329402923584,
        -0.7343794107437134,
        -7.289123058319092
      ],
      "type": "VEC3"
    },
    {
      "bufferView": 2,
      "byteOffset": 119736,
      "componentType": 5126,
      "count": 9834,
      "max": [
        1.0,
        0.9999997615814209,
        1.0
      ],
      "min": [
        -1.0,
        -1.0,
        -1.0
      ],
      "type": "VEC3"
    },
    {
      "bufferView": 0,
      "byteOffset": 432,
      "componentType": 5125,
      "count": 57696,
      "type": "SCALAR"
    },
    {
      "bufferView": 2,
      "byteOffset": 237744,
      "componentType": 5126,
      "count": 5280,
      "max": [
        4.732707500457764,
        1.4942703247070313,
        5.074787616729736
      ],
      "min": [
        -2.776345729827881,
        -0.24527385830879211,
        -7.297410488128662
      ],
      "type": "VEC3"
    },
    {
      "bufferView": 2,
      "byteOffset": 301104,
      "componentType": 5126,
      "count": 5280,
      "max": [
        0.9999967813491821,
        0.9883986115455627,
        1.0
      ],
      "min": [
        -0.9999967813491821,
        -0.999494194984436,
        -1.0
      ],
      "type": "VEC3"
    },
    {
      "bufferView": 0,
      "byteOffset": 231216,
      "componentType": 5125,
      "count": 30720,
      "type": "SCALAR"
    },
    {
      "bufferView": 2,
      "byteOffset": 364464,
      "componentType": 5126,
      "count": 1688,
      "max": [
        1.4928210973739624,
        1.671237826347351,
        -3.0757434368133545
      ],
      "min": [
        0.45279669761657715,
        -0.683306872844696,
        -6.320314407348633
      ],
      "type": "VEC3"
    },
    {
      "bufferView": 2,
      "byteOffset": 384720,
      "componentType": 5126,
      "count": 1688,
      "max": [
        1.0,
        1.0,
        0.9999999403953552
      ],
      "min": [
        -1.0,
        -1.0,
        -1.0
      ],
      "type": "VEC3"
    },
    {
      "bufferView": 0,
      "byteOffset": 354096,
      "componentType": 5125,
      "count": 9180,
      "type": "SCALAR"
    },
    {
      "bufferView": 2,
      "byteOffset": 404976,
      "componentType": 5126,
      "count": 192,
      "max": [
        1.020711064338684,
        2.0353925228118896,
        -1.3545552492141724
      ],
      "min": [
        0.9214960336685181,
        1.5673291683197021,
        -4.125223159790039
      ],
      "type": "VEC3"
    },
    {
      "bufferView": 2,
      "byteOffset": 407280,
      "componentType": 5126,
      "count": 192,
      "max": [
        0.012932153418660164,
        0.9937123656272888,
        -0.11194507032632828
      ],
      "min": [
        -0.01280099619179964,
        0.9757770299911499,
        -0.21876785159111023
      ],
      "type": "VEC3"
    },
    {
      "bufferView": 0,
      "byteOffset": 390816,
      "componentType": 5125,
      "count": 288,
      "type": "SCALAR"
    },
    {
      "bufferView": 2,
      "byteOffset": 409584,
      "componentType": 5126,
      "count": 10641,
      "max": [
        0.9689978361129761,
        -0.009075107052922249,
        2.68108868598938
      ],
      "min": [
        -1.0169718265533447,
        -0.27499377727508545,
        -1.1000670194625854
      ],
      "type": "VEC3"
    },
    {
      "bufferView": 2,
      "byteOffset": 537276,
      "componentType": 5126,
      "count": 10641,
      "max": [
        1.0,
        1.0,
        1.0
      ],
      "min": [
        -1.0,
        -1.0,
        -1.0
      ],
      "type": "VEC3"
    },
    {
      "bufferView": 0,
      "byteOffset": 391968,
      "componentType": 5125,
      "count": 63360,
      "type": "SCALAR"
    },
    {
      "bufferView": 2,
      "byteOffset": 664968,
      "componentType": 5126,
      "count": 1600,
      "max": [
        3.7592806816101074,
        0.028429025784134865,
        2.194833755493164
      ],
      "min": [
        -3.948704957962036,
        -0.07339844852685928,
        -0.850113034248352
      ],
      "type": "VEC3"
    },
    {
      "bufferView": 2,
      "byteOffset": 684168,
      "componentType": 5126,
      "count": 1600,
      "max": [
        1.9024113839805068e-07,
        0.999441385269165,
        0.033422958105802536
      ],
      "min": [
        -1.1024588530972323e-07,
        0.9994413256645203,
        0.03342260420322418
      ],
      "type": "VEC3"
    },
    {
      "bufferView": 1,
      "byteOffset": 576,
      "componentType": 5126,
      "count": 1600,
      "max": [
        0.9711143374443054,
        0.9398881793022156
      ],
      "min": [
        0.01392132043838501,
        0.06859540939331055
      ],
      "type": "VEC2"
    },
    {
      "bufferView": 0,
      "byteOffset": 645408,
      "componentType": 5125,
      "count": 2400,
      "type": "SCALAR"
    },
    {
      "bufferView": 2,
      "byteOffset": 703368,
      "componentType": 5126,
      "count": 20674,
      "max": [
        7.345807075500488,
        0.007432297337800264,
        1.8796035051345825
      ],
      "min": [
        -0.15211917459964752,
        -0.08099362254142761,
        -0.8984981775283813
      ],
      "type": "VEC3"
    },
    {
      "bufferView": 2,
      "byteOffset": 951456,
      "componentType": 5126,
      "count": 20674,
      "max": [
        0.3166092038154602,
        0.9999996423721313,
        0.3712959587574005
      ],
      "min": [
        -0.34007686376571655,
        0.8884031176567078,
        -0.28474292159080505
      ],
      "type": "VEC3"
    },
    {
      "bufferView": 1,
      "byteOffset": 13376,
      "componentType": 5126,
      "count": 20674,
      "max": [
        0.9424627423286438,
        0.883365273475647
      ],
      "min": [
        0.05988932400941849,
        0.13503095507621765
      ],
      "type": "VEC2"
    },
    {
      "bufferView": 0,
      "byteOffset": 655008,
      "componentType": 5125,
      "count": 88704,
      "type": "SCALAR"
    },
    {
      "bufferView": 2,
      "byteOffset": 1199544,
      "componentType": 5126,
      "count": 65533,
      "max": [
        7.355245590209961,
        0.005773473065346479,
        1.8892189264297485
      ],
      "min": [
        -0.16083084046840668,
        -0.1367906779050827,
        -0.9159945249557495
      ],
      "type": "VEC3"
    },
    {
      "bufferView": 2,
      "byteOffset": 1985940,
      "componentType": 5126,
      "count": 65533,
      "max": [
        1.0,
        0.9925380945205688,
        0.9994577169418335
      ],
      "min": [
        -1.0,
        -0.03341878578066826,
        -0.999442458152771
      ],
      "type": "VEC3"
    },
    {
      "bufferView": 1,
      "byteOffset": 178768,
      "componentType": 5126,
      "count": 65533,
      "max": [
        0.9444506764411926,
        0.8867372870445251
      ],
      "min": [
        0.0565464049577713,
        0.13336814939975739
      ],
      "type": "VEC2"
    },
    {
      "bufferView": 0,
      "byteOffset": 1009824,
      "componentType": 5125,
      "count": 227910,
      "type": "SCALAR"
    },
    {
      "bufferView": 2,
      "byteOffset": 2772336,
      "componentType": 5126,
      "count": 3400,
      "max": [
        5.388623237609863,
        -0.002350584138184786,
        -0.24264509975910187
      ],
      "min": [
        3.008082866668701,
        -0.06549802422523499,
        -0.441728800535202
      ],
      "type": "VEC3"
    },
    {
      "bufferView": 2,
      "byteOffset": 2813136,
      "componentType": 5126,
      "count": 3400,
      "max": [
        1.0,
        0.9613118171691895,
        0.9994415044784546
      ],
      "min": [
        -1.0,
        -0.033418480306863785,
        -0.9994415044784546
      ],
      "type": "VEC3"
    },
    {
      "bufferView": 1,
      "byteOffset": 703032,
      "componentType": 5126,
      "count": 3400,
      "max": [
        0.7098243832588196,
        0.7554203867912292
      ],
      "min": [
        0.43022558093070984,
        0.7021239399909973
      ],
      "type": "VEC2"
    },
    {
      "bufferView": 0,
      "byteOffset": 1921464,
      "componentType": 5125,
      "count": 11706,
      "type": "SCALAR"
    }
  ],
  "asset": {
    "extras": {
      "author": "gorzi (https://sketchfab.com/gorzi90)",
      "license": "CC-BY-4.0 (http://creativecommons.org/licenses/by/4.0/)",
      "source": "https://sketchfab.com/3d-models/mouse-and-keyboard-c63ee81b71ff45b68a778101b4df3d46",
      "title": "Mouse and Keyboard"
    },
    "generator": "Sketchfab-12.66.0",
    "version": "2.0"
  },
  "bufferViews": [
    {
      "buffer": 0,
      "byteLength": 1968288,
      "name": "floatBufferViews",
      "target": 34963
    },
    {
      "buffer": 0,
      "byteLength": 730232,
      "byteOffset": 1968288,
      "byteStride": 8,
      "name": "floatBufferViews",
      "target": 34962
    },
    {
      "buffer": 0,
      "byteLength": 2853936,
      "byteOffset": 2698520,
      "byteStride": 12,
      "name": "floatBufferViews",
      "target": 34962
    }
  ],
  "buffers": [
    {
      "byteLength": 5552456,
      "uri": "scene.bin"
    }
  ],
  "extensionsUsed": [
    "KHR_materials_transmission"
  ],
  "images": [
    {
      "uri": "textures/klawiatura_klawisze_baseColor.png"
    }
  ],
  "materials": [
    {
      "alphaMode": "BLEND",
      "doubleSided": true,
      "extensions": {
        "KHR_materials_transmission": {
          "transmissionFactor": 0.8523657953778523
        }
      },
      "name": "Material.001",
      "pbrMetallicRoughness": {
        "baseColorFactor": [
          0.162642,
          0.162642,
          0.162642,
          0.25
        ],
        "metallicFactor": 0.0,
        "roughnessFactor": 0.5
      }
    },
    {
      "doubleSided": true,
      "emissiveFactor": [
        1.0,
        1.0,
        0.5596193097466551
      ],
      "name": "Material.002",
      "pbrMetallicRoughness": {
        "baseColorFactor": [
          0.4083580000000001,
          0.7999999999999999,
          0.19836500000000004,
          1.0
        ],
        "metallicFactor": 0.0,
        "roughnessFactor": 0.5
      }
    },
    {
      "doubleSided": true,
      "name": "plastik_mat.001",
      "pbrMetallicRoughness": {
        "baseColorFactor": [
          0.0305635,
          0.0305635,
          0.0305635,
          1.0
        ],
        "metallicFactor": 0.0,
        "roughnessFactor": 0.5246049407487126
      }
    },
    {
      "doubleSided": true,
      "name": "plastik_polysk.002",
      "pbrMetallicRoughness": {
        "baseColorFactor": [
          0.0113073,
          0.0113073,
          0.0113073,
          1.0
        ],
        "metallicFactor": 0.0,
        "roughnessFactor": 0.27531784105211315
      }
    },
    {
      "doubleSided": true,
      "name": "guma",
      "pbrMetallicRoughness": {
        "baseColorFactor": [
          0.0607196,
          0.0607196,
          0.0607196,
          1.0
        ],
        "metallicFactor": 0.0,
        "roughnessFactor": 0.5732463260553661
      }
    },
    {
      "doubleSided": true,
      "name": "plastik_polysk.001",
      "pbrMetallicRoughness": {
        "baseColorFactor": [
          0.017173,
          0.017173,
          0.017173,
          1.0
        ],
        "metallicFactor": 0.0,
        "roughnessFactor": 0.24491697523545472
      }
    },
    {
      "doubleSided": true,
      "name": "plastik_polysk.klawiatura",
      "pbrMetallicRoughness": {
        "baseColorFactor": [
          0.0110877,
          0.0110877,
          0.0110877,
          1.0
        ],
        "metallicFactor": 0.0,
        "roughnessFactor": 0.7495713477919851
      }
    },
    {
      "doubleSided": true,
      "name": "klawiatura_klawisze",
      "pbrMetallicRoughness": {
        "baseColorTexture": {
          "index": 0
        },
        "metallicFactor": 0.0,
        "roughnessFactor": 0.28139801421544486
      }
    },
    {
      "doubleSided": true,
      "name": "Material.011",
      "pbrMetallicRoughness": {
        "baseColorFactor": [
          0.0,
          0.0,
          0.0,
          1.0
        ],
        "metallicFactor": 0.0,
        "roughnessFactor": 0.28139801421544486
      }
    }
  ],
  "meshes": [
    {
      "name": "Object_0",
      "primitives": [
        {
          "attributes": {
            "NORMAL": 1,
            "POSITION": 0,
            "TEXCOORD_0": 2
          },
          "indices": 3,
          "material": 0,
          "mode": 4
        }
      ]
    },
    {
      "name": "Object_1",
      "primitives": [
        {
          "attributes": {
            "NORMAL": 5,
            "POSITION": 4,
            "TEXCOORD_0": 6
          },
          "indices": 7,
          "material": 1,
          "mode": 4
        }
      ]
    },
    {
      "name": "Object_2",
      "primitives": [
        {
          "attributes": {
            "NORMAL": 9,
            "POSITION": 8
          },
          "indices": 10,
          "material": 2,
          "mode": 4
        }
      ]
    },
    {
      "name": "Object_3",
      "primitives": [
        {
          "attributes": {
            "NORMAL": 12,
            "POSITION": 11
          },
          "indices": 13,
          "material": 3,
          "mode": 4
        }
      ]
    },
    {
      "name": "Object_4",
      "primitives": [
        {
          "attributes": {
            "NORMAL": 15,
            "POSITION": 14
          },
          "indices": 16,
          "material": 4,
          "mode": 4
        }
      ]
    },
    {
      "name": "Object_5",
      "primitives": [
        {
          "attributes": {
            "NORMAL": 18,
            "POSITION": 17
          },
          "indices": 19,
          "material": 1,
          "mode": 4
        }
      ]
    },
    {
      "name": "Object_6",
      "primitives": [
        {
          "attributes": {
            "NORMAL": 21,
            "POSITION": 20
          },
          "indices": 22,
          "material": 5,
          "mode": 4
        }
      ]
    },
    {
      "name": "Object_7",
      "primitives": [
        {
          "attributes": {
            "NORMAL": 24,
            "POSITION": 23,
            "TEXCOORD_0": 25
          },
          "indices": 26,
          "material": 6,
          "mode": 4
        }
      ]
    },
    {
      "name": "Object_8",
      "primitives": [
        {
          "attributes": {
            "NORMAL": 28,
            "POSITION": 27,
            "TEXCOORD_0": 29
          },
          "indices": 30,
          "material": 7,
          "mode": 4
        }
      ]
    },
    {
      "name": "Object_9",
      "primitives": [
        {
          "attributes": {
            "NORMAL": 32,
            "POSITION": 31,
            "TEXCOORD_0": 33
          },
          "indices": 34,
          "material": 8,
          "mode": 4
        }
      ]
    },
    {
      "name": "Object_10",
      "primitives": [
        {
          "attributes": {
            "NORMAL": 36,
            "POSITION": 35,
            "TEXCOORD_0": 37
          },
          "indices": 38,
          "material": 8,
          "mode": 4
        }
      ]
    }
  ],
  "nodes": [
    {
      "children": [
        1
      ],
      "matrix": [
        1.0,
        0.0,
        0.0,
        0.0,
        0.0,
        2.220446049250313e-16,
        -1.0,
        0.0,
        0.0,
        1.0,
        2.220446049250313e-16,
        0.0,
        0.0,
        0.0,
        0.0,
        1.0
      ],
      "name": "Sketchfab_model"
    },
    {
      "children": [
        2
      ],
      "name": "root"
    },
    {
      "children": [
        3,
        6,
        11,
        13,
        15
      ],
      "matrix": [
        1.0,
        0.0,
        0.0,
        0.0,
        0.0,
        2.220446049250313e-16,
        1.0,
        0.0,
        0.0,
        -1.0,
        2.220446049250313e-16,
        0.0,
        0.0,
        0.0,
        0.0,
        1.0
      ],
      "name": "GLTF_SceneRootNode"
    },
    {
      "children": [
        4,
        5
      ],
      "matrix": [
        0.12804442644119263,
        0.0,
        0.0,
        0.0,
        0.0,
        0.025122523307800293,
        0.0,
        0.0,
        0.0,
        0.0,
        0.12804442644119263,
        0.0,
        5.279354095458984,
        -2.582521677017212,
        -4.383600234985352,
        1.0
      ],
      "name": "Plane_0"
    },
    {
      "mesh": 0,
      "name": "Object_4"
    },
    {
      "mesh": 1,
      "name": "Object_5"
    },
    {
      "children": [
        7,
        8,
        9,
        10
      ],
      "matrix": [
        0.15623405962640044,
        -0.0,
        -0.065962823886016,
        0.0,
        0.0,
        0.21893925964832306,
        -0.0,
        0.0,
        0.065962823886016,
        0.0,
        0.15623405962640044,
        0.0,
        8.52450942993164,
        -2.675022840499878,
        -2.311434030532837,
        1.0
      ],
      "name": "Plane.015_1"
    },
    {
      "mesh": 2,
      "name": "Object_7"
    },
    {
      "mesh": 3,
      "name": "Object_8"
    },
    {
      "mesh": 4,
      "name": "Object_9"
    },
    {
      "mesh": 5,
      "name": "Object_10"
    },
    {
      "children": [
        12
      ],
      "matrix": [
        3.948704481124878,
        0.0,
        0.0,
        0.0,
        0.0,
        1.055425141220693,
        0.035294960204445724,
        0.0,
        0.0,
        -0.028429021321984032,
        0.8501129812788886,
        0.0,
        2.632819890975952,
        -2.5909647941589355,
        -3.762960910797119,
        1.0
      ],
      "name": "Plane.027_2"
    },
    {
      "mesh": 6,
      "name": "Object_12"
    },
    {
      "children": [
        14
      ],
      "matrix": [
        1.0,
        0.0,
        0.0,
        0.0,
        0.0,
        1.0,
        0.0,
        0.0,
        0.0,
        0.0,
        1.0,
        0.0,
        2.632819890975952,
        -2.609365701675415,
        -3.763576030731201,
        1.0
      ],
      "name": "Plane.026_3"
    },
    {
      "mesh": 7,
      "name": "Object_14"
    },
    {
      "children": [
        16,
        17,
        18
      ],
      "matrix": [
        1.0,
        0.0,
        0.0,
        0.0,
        0.0,
        1.0,
        0.0,
        0.0,
        0.0,
        0.0,
        1.0,
        0.0,
        -1.0616297721862793,
        -2.571911334991455,
        -3.615995168685913,
        1.0
      ],
      "name": "Plane.017_4"
    },
    {
      "mesh": 8,
      "name": "Object_16"
    },
    {
      "mesh": 9,
      "name": "Object_17"
    },
    {
      "mesh": 10,
      "name": "Object_18"
    }
  ],
  "samplers": [
    {
      "magFilter": 9729,
      "minFilter": 9987,
      "wrapS": 10497,
      "wrapT": 10497
    }
  ],
  "scene": 0,
  "scenes": [
    {
      "name": "Sketchfab_Scene",
      "nodes": [
        0
      ]
    }
  ],
  "textures": [
    {
      "sampler": 0,
      "source": 0
    }
  ]
}
